<svg t="1711457438211" class="icon" viewBox="0 0 1024 1024" version="1.1" xmlns="http://www.w3.org/2000/svg" p-id="5175" width="256" height="256"><path d="M368.128 325.312H278.432a13.44 13.44 0 0 0-13.344 13.504v316.32a13.44 13.44 0 0 1-13.312 13.504h-75.52a13.44 13.44 0 0 1-13.344-13.504v-316.32a13.44 13.44 0 0 0-13.312-13.504H94.848c-40.576 0-64 0-76.608-33.472-5.728-15.168-0.576-45.12 16.64-64.64 4.352-4.96 12.384-1.6 11.68 5.024-0.8 7.68 3.648 13.472 16.864 13.472h304.704a13.44 13.44 0 0 1 13.344 13.504v52.608a13.44 13.44 0 0 1-13.344 13.504z" fill="#1195db" p-id="5176"></path><path d="M541.632 647.488a6.464 6.464 0 0 0-11.616-1.408c-7.168 11.072-15.36 20.352-24.64 27.84-12.864 10.4-29.664 15.584-50.432 15.584-103.68 0-125.696-110.56-125.696-149.888 0-54.656 13.568-173.248 147.808-173.248 0 0 37.12-0.96 58.144 6.336l1.184-6.4a13.248 13.248 0 0 1 12.992-10.944h73.856c7.296 0 13.216 5.984 13.216 13.376v221.12l-0.096 5.28c-0.48 18.656-1.472 57.696 28.096 67.68 5.248 1.792 5.6 9.376 0.8 12.128-76.064 43.488-111.936 6.656-123.616-27.456z m-59.136-30.976c12.256-1.664 23.296-4.48 32.8-10.368 9.472-5.856 19.904-18.816 19.904-30.976v-139.488a13.12 13.12 0 0 0-9.056-12.736c-14.464-4.192-31.68-2.048-31.68-2.048-117.856 6.688-97.888 207.392-11.968 195.616zM834.816 668.576c11.904 6.176 25.536 9.216 40.896 9.216 39.36 0 132.288-30.24 132.288-172.032 0-139.2-93.312-172.96-132.864-172.96-15.968 0-30.08 3.68-42.368 11.072a92.992 92.992 0 0 0-22.4 18.976 6.368 6.368 0 0 1-11.2-2.976 86.528 86.528 0 0 0-4.224-13.952c-5.536-13.856-53.696-73.12-123.52-22.912-4.64 3.328-3.232 11.296 2.336 12.288 21.376 3.744 30.176 22.72 30.176 80.32V785.6c0 7.488 5.824 13.568 12.992 13.568h73.728a13.248 13.248 0 0 0 13.024-13.504v-126.656c0-6.016 6.816-8.768 11.072-4.736 6.144 5.792 12.8 10.56 20.064 14.304z m17.664-257.824c17.312 0 69.728 13.728 69.728 95.04 0 70.528-53.472 92.16-71.008 92.16-11.392 0-20.992-1.76-28.768-5.248a43.68 43.68 0 0 1-10.624-6.72c-5.504-4.704-8.128-12.224-8.128-19.648V446.72c0-6.624 2.176-13.216 6.496-18.08 3.456-3.84 7.424-7.008 11.968-9.504 7.776-4.32 19.136-8.384 30.336-8.384z" fill="#1195db" p-id="5177"></path></svg>